<!-- The wave Has been Generated from: https://getwaves.io/ -->

<svg xmlns="http://www.w3.org/2000/svg" viewBox="0 0 1440 320"><path fill="#00cba9" fill-opacity="1" d="M0,160L34.3,186.7C68.6,213,137,267,206,282.7C274.3,299,343,277,411,261.3C480,245,549,235,617,197.3C685.7,160,754,96,823,101.3C891.4,107,960,181,1029,224C1097.1,267,1166,277,1234,266.7C1302.9,256,1371,224,1406,208L1440,192L1440,320L1405.7,320C1371.4,320,1303,320,1234,320C1165.7,320,1097,320,1029,320C960,320,891,320,823,320C754.3,320,686,320,617,320C548.6,320,480,320,411,320C342.9,320,274,320,206,320C137.1,320,69,320,34,320L0,320Z"></path></svg>